#!OML:ASF X:\für Bonn\!DataBase\2005_08_10_Bjorn_Final\c3d\bjorn.ASF
:FULLY-SPECIFIED
:DEGREES
47
root 4.75524 21.2694 -19.1125 12.3163 -9.88418 -1.25619
lowerback -10.4201 1.28527 0.286189
upperback 1.42906 1.75327 -1.0377
thorax 7.40764 0.891532 -0.963724
lowerneck 0.23101 -0.482534 1.4198
upperneck 8.48685 -0.826793 1.90312
head 2.64448 -0.315899 0.345418
rclavicle 5.06901e-015 -8.74653e-015
rhumerus -7.99219 -5.93701 -60.2488
rradius 121.86
rwrist -202.979
rhand -1.55847e-013 3.94389e-013
rfingers 7.12502
rthumb 25.5904 -28.3008
lclavicle 5.06901e-015 -8.74653e-015
lhumerus -1.6189 -16.6394 55.2369
lradius 113.469
lwrist 7.02482
lhand 3.81667e-013 7.95139e-014
lfingers 7.12502
lthumb 25.5904 28.3008
rfemur -11.3608 -4.64001 13.2316
rtibia 37.3181
rfoot 19.512 2.9165
rtoes -12.4676
lfemur -11.4835 4.7771 -16.3273
ltibia 38.4555
lfoot 21.6267 -3.68254
ltoes -26.9549
48
root 4.75759 21.4993 -18.9179 12.5735 -9.84618 -1.14713
lowerback -11.0318 1.26053 0.208077
upperback 1.22658 1.7344 -1.09652
thorax 7.54019 0.879111 -0.974751
lowerneck 0.416562 -0.482455 1.3942
upperneck 9.11959 -0.840486 1.94645
head 2.82417 -0.316261 0.364828
rclavicle 3.51849e-014 -4.37326e-015
rhumerus -6.94496 -5.85546 -60.3242
rradius 122.09
rwrist -203.469
rhand -1.48214e-012 2.52536e-012
rfingers 7.12502
rthumb 25.5904 -28.3008
lclavicle 3.51849e-014 -4.37326e-015
lhumerus -0.345809 -16.2075 54.9703
lradius 113.098
lwrist 6.4168
lhand 2.28682e-012 1.6682e-012
lfingers 7.12502
lthumb 25.5904 28.3008
rfemur -11.6576 -4.50213 13.31
rtibia 37.5164
rfoot 19.1816 0.646202
rtoes -12.208
lfemur -11.9754 5.05614 -16.5372
ltibia 38.7571
lfoot 23.4676 -4.44983
ltoes -26.0295
49
root 4.76169 21.7094 -18.7425 12.7798 -9.83535 -0.997684
lowerback -11.4208 1.23496 0.0843582
upperback 1.09496 1.72385 -1.18374
thorax 7.62038 0.869932 -0.992773
lowerneck 0.448751 -0.496622 1.45247
upperneck 9.57483 -0.869285 1.92236
head 2.97259 -0.324404 0.347372
rclavicle 1.42131e-014 1.98785e-015
rhumerus -6.02759 -5.70706 -60.5431
rradius 122.256
rwrist -203.705
rhand 6.17028e-013 -3.78486e-013
rfingers 7.12502
rthumb 25.5904 -28.3008
lclavicle 1.42131e-014 1.98785e-015
lhumerus 0.870127 -15.7364 54.8874
lradius 112.679
lwrist 5.8155
lhand -6.9018e-013 -1.47896e-013
lfingers 7.12502
lthumb 25.5904 28.3008
rfemur -12.108 -4.56079 13.3534
rtibia 37.957
rfoot 18.8439 -1.10102
rtoes -11.528
lfemur -12.5451 5.57208 -16.8185
ltibia 39.2811
lfoot 24.7898 -5.25498
ltoes -25.0475
50
root 4.76539 21.9083 -18.581 12.9175 -9.84695 -0.828077
lowerback -11.5919 1.22618 -0.0775064
upperback 1.02917 1.74333 -1.29408
thorax 7.64678 0.874766 -1.01211
lowerneck 0.352162 -0.54076 1.56547
upperneck 9.92452 -0.937628 1.87011
head 3.10953 -0.351373 0.309814
rclavicle -3.44891e-014 -1.74931e-014
rhumerus -5.29985 -5.54882 -60.8844
rradius 122.412
rwrist -203.684
rhand 1.7175e-013 -4.80264e-013
rfingers 7.12502
rthumb 25.5904 -28.3008
lclavicle -3.44891e-014 -1.74931e-014
lhumerus 1.98687 -15.2911 55.0023
lradius 112.367
lwrist 5.36005
lhand -6.77458e-013 -6.83819e-013
lfingers 7.12502
lthumb 25.5904 28.3008
rfemur -12.6302 -4.74854 13.3823
rtibia 38.5652
rfoot 18.5096 -2.22183
rtoes -10.5972
lfemur -13.1376 6.28287 -17.1415
ltibia 39.9685
lfoot 25.5442 -6.15424
ltoes -24.125
51
root 4.77078 22.0975 -18.4269 12.9604 -9.86532 -0.684035
lowerback -11.5262 1.20183 -0.228578
upperback 1.0151 1.73698 -1.36993
thorax 7.59207 0.86717 -1.00969
lowerneck 0.279978 -0.561103 1.5976
upperneck 10.1085 -0.969264 1.83861
head 3.18598 -0.364372 0.293366
rclavicle 6.4605e-015 -2.38542e-015
rhumerus -4.69988 -5.34416 -61.3113
rradius 122.6
rwrist -203.614
rhand 1.2754e-012 -2.14051e-012
rfingers 7.12502
rthumb 25.5904 -28.3008
lclavicle 6.4605e-015 -2.38542e-015
lhumerus 2.93622 -14.8341 55.338
lradius 112.092
lwrist 4.97766
lhand -1.13864e-012 -2.11348e-012
lfingers 7.12502
lthumb 25.5904 28.3008
rfemur -13.1242 -5.17319 13.4272
rtibia 39.2256
rfoot 18.3581 -2.41815
rtoes -10.2003
lfemur -13.6894 7.02333 -17.4556
ltibia 40.7414
lfoot 25.902 -6.95599
ltoes -23.4256
52
root 4.777 22.2691 -18.2797 12.9212 -9.91562 -0.540874
lowerback -11.3209 1.21369 -0.327184
upperback 1.0766 1.77578 -1.50933
thorax 7.54328 0.885574 -1.09801
lowerneck 0.145318 -0.622611 1.77541
upperneck 10.1708 -1.05152 1.72384
head 3.23113 -0.400951 0.223008
rclavicle -2.78299e-015 -1.27222e-014
rhumerus -4.20391 -5.24827 -61.9362
rradius 122.833
rwrist -203.447
rhand 2.54444e-013 2.25819e-013
rfingers 7.12502
rthumb 25.5904 -28.3008
lclavicle -2.78299e-015 -1.27222e-014
lhumerus 3.89516 -14.4877 55.6882
lradius 111.805
lwrist 4.66411
lhand -3.11694e-013 3.37139e-013
lfingers 7.12502
lthumb 25.5904 28.3008
rfemur -13.5765 -5.68408 13.4698
rtibia 39.8598
rfoot 18.4976 -1.97205
rtoes -10.1574
lfemur -14.2147 7.71953 -17.7884
ltibia 41.5359
lfoot 25.9568 -7.57691
ltoes -22.8975
53
root 4.78306 22.4238 -18.1368 12.8081 -9.96242 -0.411382
lowerback -11.0077 1.20745 -0.433026
upperback 1.18327 1.78769 -1.61449
thorax 7.47923 0.890038 -1.15248
lowerneck -0.0258056 -0.683666 1.94011
upperneck 10.2208 -1.12393 1.49785
head 3.27804 -0.436988 0.118689
rclavicle 0 -2.94201e-014
rhumerus -3.79221 -5.18472 -62.6659
rradius 123.204
rwrist -203.247
rhand 7.31528e-013 5.24792e-013
rfingers 7.12502
rthumb 25.5904 -28.3008
lclavicle 0 -2.94201e-014
lhumerus 4.67711 -14.161 56.1268
lradius 111.544
lwrist 4.36963
lhand -7.76055e-013 6.34521e-013
lfingers 7.12502
lthumb 25.5904 28.3008
rfemur -13.9419 -6.23091 13.534
rtibia 40.4105
rfoot 18.9799 -1.09138
rtoes -10.1746
lfemur -14.7187 8.38307 -18.1073
ltibia 42.288
lfoot 25.9429 -8.03368
ltoes -22.6881
54
root 4.79051 22.5693 -17.9969 12.6044 -10.0194 -0.242391
lowerback -10.5015 1.20903 -0.580431
upperback 1.28084 1.81231 -1.73446
thorax 7.29436 0.899671 -1.20055
lowerneck -0.0675749 -0.765145 2.17689
upperneck 10.165 -1.21167 1.17455
head 3.26277 -0.483417 -0.0296112
rclavicle 1.83876e-014 -1.35174e-014
rhumerus -3.62662 -5.13907 -63.4865
rradius 123.576
rwrist -203.231
rhand 3.49861e-013 8.74653e-013
rfingers 7.12502
rthumb 25.5904 -28.3008
lclavicle 1.83876e-014 -1.35174e-014
lhumerus 5.25787 -13.9255 56.6906
lradius 111.333
lwrist 3.97362
lhand -1.27222e-013 1.24996e-012
lfingers 7.12502
lthumb 25.5904 28.3008
rfemur -14.246 -6.81306 13.5443
rtibia 40.8937
rfoot 19.6517 0.0454309
rtoes -9.89625
lfemur -15.1398 8.951 -18.4668
ltibia 42.9285
lfoot 25.8238 -8.3969
ltoes -23.1958
55
root 4.79758 22.7131 -17.8551 12.3663 -10.0379 -0.11183
lowerback -9.88539 1.186 -0.695825
upperback 1.39401 1.79434 -1.82675
thorax 7.06216 0.889458 -1.24627
lowerneck -0.249641 -0.831558 2.39626
upperneck 10.2002 -1.27911 0.785354
head 3.30502 -0.521208 -0.196894
rclavicle -9.64106e-015 1.27222e-014
rhumerus -3.57516 -4.80369 -64.3561
rradius 123.816
rwrist -203.047
rhand -1.2754e-012 1.06549e-012
rfingers 7.12502
rthumb 25.5904 -28.3008
lclavicle -9.64106e-015 1.27222e-014
lhumerus 5.57063 -13.9461 57.363
lradius 111.128
lwrist 4.48175
lhand 1.45669e-012 8.82604e-013
lfingers 7.12502
lthumb 25.5904 28.3008
rfemur -14.556 -7.44189 13.6126
rtibia 41.2958
rfoot 20.3795 1.42765
rtoes -10.0822
lfemur -15.4704 9.43075 -18.7579
ltibia 43.4288
lfoot 25.7303 -8.40032
ltoes -23.6387
56
root 4.80429 22.8542 -17.7117 12.074 -10.0282 -8.50749e-005
lowerback -9.12294 1.16226 -0.800435
upperback 1.50748 1.76929 -1.92222
thorax 6.74659 0.876552 -1.3046
lowerneck -0.488212 -0.906267 2.65473
upperneck 10.3156 -1.36077 0.376843
head 3.38548 -0.564546 -0.379219
rclavicle 3.97569e-016 2.50469e-014
rhumerus -3.69438 -4.40831 -65.2609
rradius 123.878
rwrist -203.057
rhand -2.29e-013 -5.1843e-013
rfingers 7.12502
rthumb 25.5904 -28.3008
lclavicle 3.97569e-016 2.50469e-014
lhumerus 5.73478 -14.0339 58.1502
lradius 110.944
lwrist 5.30641
lhand 1.7175e-013 -1.08139e-013
lfingers 7.12502
lthumb 25.5904 28.3008
rfemur -14.8245 -8.10147 13.7088
rtibia 41.6143
rfoot 21.0781 2.95281
rtoes -10.4076
lfemur -15.6955 9.77083 -18.9809
ltibia 43.776
lfoot 25.6611 -7.74023
ltoes -22.7535
57
root 4.81229 22.9895 -17.5673 11.7652 -9.98804 0.0666538
lowerback -8.28624 1.12353 -0.846355
upperback 1.63021 1.7132 -2.00328
thorax 6.39878 0.85043 -1.38568
lowerneck -0.725519 -0.952262 2.8706
upperneck 10.4281 -1.4051 -0.00344813
head 3.46592 -0.590515 -0.545007
rclavicle 3.35946e-014 -2.94201e-014
rhumerus -3.89456 -3.83754 -66.1857
rradius 123.802
rwrist -202.845
rhand 1.04004e-012 7.21986e-013
rfingers 7.12502
rthumb 25.5904 -28.3008
lclavicle 3.35946e-014 -2.94201e-014
lhumerus 5.79322 -14.1734 58.9585
lradius 110.498
lwrist 5.20016
lhand -6.01125e-013 1.07503e-012
lfingers 7.12502
lthumb 25.5904 28.3008
rfemur -15.0478 -8.64295 13.8471
rtibia 41.8456
rfoot 21.6747 4.19477
rtoes -9.80698
lfemur -15.8751 10.0009 -19.1374
ltibia 43.9899
lfoot 25.4494 -6.95225
ltoes -20.6389
58
root 4.81922 23.1196 -17.4217 11.3909 -9.93614 0.132167
lowerback -7.37224 1.07856 -0.913689
upperback 1.79019 1.6473 -2.0654
thorax 6.0444 0.818212 -1.43596
lowerneck -0.921784 -0.989519 3.00668
upperneck 10.5094 -1.43548 -0.353038
head 3.52869 -0.612327 -0.686795
rclavicle 8.15017e-015 -2.06736e-014
rhumerus -4.09828 -3.14736 -67.0559
rradius 123.555
rwrist -202.302
rhand 6.48833e-013 1.08139e-013
rfingers 7.12502
rthumb 25.5904 -28.3008
lclavicle 8.15017e-015 -2.06736e-014
lhumerus 5.77367 -14.4602 59.8034
lradius 109.718
lwrist 4.57782
lhand -7.18805e-013 -1.59028e-013
lfingers 7.12502
lthumb 25.5904 28.3008
rfemur -15.1846 -9.073 13.9725
rtibia 42.0046
rfoot 22.0362 5.18664
rtoes -9.11062
lfemur -15.9783 10.1831 -19.2681
ltibia 44.0561
lfoot 25.028 -6.45775
ltoes -18.3153
59
root 4.8273 23.2418 -17.2766 10.986 -9.91911 0.234905
lowerback -6.39233 1.04396 -1.00968
upperback 1.95473 1.59451 -2.13299
thorax 5.65662 0.791469 -1.47398
lowerneck -1.01117 -1.01155 3.02779
upperneck 10.5055 -1.4468 -0.585866
head 3.54282 -0.62594 -0.768239
rclavicle -4.03533e-014 2.22639e-014
rhumerus -4.34323 -2.44702 -67.8637
rradius 123.128
rwrist -201.704
rhand -1.59028e-013 -2.21685e-012
rfingers 7.12502
rthumb 25.5904 -28.3008
lclavicle -4.03533e-014 2.22639e-014
lhumerus 5.72106 -14.7759 60.6544
lradius 108.847
lwrist 4.32295
lhand -4.6118e-013 -2.27728e-012
lfingers 7.12502
lthumb 25.5904 28.3008
rfemur -15.3171 -9.43697 14.0174
rtibia 42.1258
rfoot 22.1313 5.9467
rtoes -8.88334
lfemur -16.0485 10.391 -19.4422
ltibia 43.9796
lfoot 24.3797 -6.32626
ltoes -17.4968
60
root 4.83565 23.3543 -17.1334 10.5352 -9.92292 0.375772
lowerback -5.34752 1.01887 -1.14521
upperback 2.14129 1.55481 -2.22876
thorax 5.25499 0.770355 -1.51763
lowerneck -0.946786 -1.00342 2.91318
upperneck 10.3037 -1.42862 -0.567463
head 3.4608 -0.622561 -0.739051
rclavicle 1.11319e-014 -2.38542e-015
rhumerus -4.60986 -1.7609 -68.6306
rradius 122.539
rwrist -200.997
rhand -1.43125e-013 8.015e-013
rfingers 7.12502
rthumb 25.5904 -28.3008
lclavicle 1.11319e-014 -2.38542e-015
lhumerus 5.68064 -15.1182 61.4676
lradius 107.962
lwrist 4.13467
lhand 3.4668e-013 7.63333e-013
lfingers 7.12502
lthumb 25.5904 28.3008
rfemur -15.43 -9.67559 14.0075
rtibia 42.2275
rfoot 21.8342 6.65024
rtoes -9.31572
lfemur -16.0656 10.5387 -19.6503
ltibia 43.752
lfoot 23.5403 -6.1577
ltoes -17.2409
